<svg xmlns="http://www.w3.org/2000/svg" version="1.1" xmlns:xlink="http://www.w3.org/1999/xlink" xmlns:svgjs="http://svgjs.com/svgjs" width="1440" height="560" preserveAspectRatio="none" viewBox="0 0 1440 560"><g mask="url(&quot;#SvgjsMask1000&quot;)" fill="none"><rect width="1440" height="560" x="0" y="0" fill="#0e2a47"></rect><path d="M-69.96 394.52L-69.96 394.52" stroke="#132e65" stroke-width="1.5"></path><path d="M-69.96 394.52L-106.13 490.63" stroke="#132e65" stroke-width="1.5"></path><path d="M-69.96 394.52L93.23 397.08" stroke="#132e65" stroke-width="1.5"></path><path d="M-69.96 394.52L64.66 508.74" stroke="#132e65" stroke-width="1.5"></path><path d="M-69.96 394.52L-78.61 655.73" stroke="#132e65" stroke-width="1.5"></path><path d="M-69.96 394.52L191.82 501.34" stroke="#132e65" stroke-width="1.5"></path><path d="M-69.96 394.52L49.87 670.56" stroke="#132e65" stroke-width="1.5"></path><path d="M-106.13 490.63L-106.13 490.63" stroke="#132e65" stroke-width="1.5"></path><path d="M-106.13 490.63L-78.61 655.73" stroke="#132e65" stroke-width="1.5"></path><path d="M-78.61 655.73L-78.61 655.73" stroke="#132e65" stroke-width="1.5"></path><path d="M-78.61 655.73L49.87 670.56" stroke="#132e65" stroke-width="1.5"></path><path d="M-78.61 655.73L64.66 508.74" stroke="#132e65" stroke-width="1.5"></path><path d="M-78.61 655.73L192.91 684.45" stroke="#132e65" stroke-width="1.5"></path><path d="M93.23 397.08L93.23 397.08" stroke="#132e65" stroke-width="1.5"></path><path d="M93.23 397.08L64.66 508.74" stroke="#132e65" stroke-width="1.5"></path><path d="M64.66 508.74L64.66 508.74" stroke="#132e65" stroke-width="1.5"></path><path d="M64.66 508.74L191.82 501.34" stroke="#132e65" stroke-width="1.5"></path><path d="M64.66 508.74L49.87 670.56" stroke="#132e65" stroke-width="1.5"></path><path d="M64.66 508.74L-106.13 490.63" stroke="#132e65" stroke-width="1.5"></path><path d="M49.87 670.56L49.87 670.56" stroke="#132e65" stroke-width="1.5"></path><path d="M49.87 670.56L192.91 684.45" stroke="#132e65" stroke-width="1.5"></path><path d="M49.87 670.56L191.82 501.34" stroke="#132e65" stroke-width="1.5"></path><path d="M191.82 501.34L191.82 501.34" stroke="#132e65" stroke-width="1.5"></path><path d="M191.82 501.34L93.23 397.08" stroke="#132e65" stroke-width="1.5"></path><path d="M191.82 501.34L192.91 684.45" stroke="#132e65" stroke-width="1.5"></path><path d="M191.82 501.34L368.05 383.08" stroke="#132e65" stroke-width="1.5"></path><path d="M191.82 501.34L408.88 538.37" stroke="#132e65" stroke-width="1.5"></path><path d="M192.91 684.45L192.91 684.45" stroke="#132e65" stroke-width="1.5"></path><path d="M192.91 684.45L374.49 663.69" stroke="#132e65" stroke-width="1.5"></path><path d="M192.91 684.45L64.66 508.74" stroke="#132e65" stroke-width="1.5"></path><path d="M368.05 383.08L368.05 383.08" stroke="#132e65" stroke-width="1.5"></path><path d="M368.05 383.08L505.49 402.4" stroke="#132e65" stroke-width="1.5"></path><path d="M368.05 383.08L408.88 538.37" stroke="#132e65" stroke-width="1.5"></path><path d="M408.88 538.37L408.88 538.37" stroke="#132e65" stroke-width="1.5"></path><path d="M408.88 538.37L501.84 538.3" stroke="#132e65" stroke-width="1.5"></path><path d="M408.88 538.37L374.49 663.69" stroke="#132e65" stroke-width="1.5"></path><path d="M408.88 538.37L505.49 402.4" stroke="#132e65" stroke-width="1.5"></path><path d="M408.88 538.37L556.44 672.63" stroke="#132e65" stroke-width="1.5"></path><path d="M374.49 663.69L374.49 663.69" stroke="#132e65" stroke-width="1.5"></path><path d="M374.49 663.69L501.84 538.3" stroke="#132e65" stroke-width="1.5"></path><path d="M505.49 402.4L505.49 402.4" stroke="#132e65" stroke-width="1.5"></path><path d="M505.49 402.4L501.84 538.3" stroke="#132e65" stroke-width="1.5"></path><path d="M501.84 538.3L501.84 538.3" stroke="#132e65" stroke-width="1.5"></path><path d="M501.84 538.3L556.44 672.63" stroke="#132e65" stroke-width="1.5"></path><path d="M501.84 538.3L664.29 650.19" stroke="#132e65" stroke-width="1.5"></path><path d="M556.44 672.63L556.44 672.63" stroke="#132e65" stroke-width="1.5"></path><path d="M556.44 672.63L664.29 650.19" stroke="#132e65" stroke-width="1.5"></path><path d="M664.26 218.66L664.26 218.66" stroke="#132e65" stroke-width="1.5"></path><path d="M664.26 218.66L673.13 366.88" stroke="#132e65" stroke-width="1.5"></path><path d="M664.26 218.66L821.91 254.45" stroke="#132e65" stroke-width="1.5"></path><path d="M664.26 218.66L808.65 375.57" stroke="#132e65" stroke-width="1.5"></path><path d="M664.26 218.66L847.29 87.45" stroke="#132e65" stroke-width="1.5"></path><path d="M664.26 218.66L505.49 402.4" stroke="#132e65" stroke-width="1.5"></path><path d="M664.26 218.66L961.91 230.35" stroke="#132e65" stroke-width="1.5"></path><path d="M673.13 366.88L673.13 366.88" stroke="#132e65" stroke-width="1.5"></path><path d="M673.13 366.88L808.65 375.57" stroke="#132e65" stroke-width="1.5"></path><path d="M710.88 520.78L710.88 520.78" stroke="#132e65" stroke-width="1.5"></path><path d="M710.88 520.78L831.93 551.65" stroke="#132e65" stroke-width="1.5"></path><path d="M710.88 520.78L664.29 650.19" stroke="#132e65" stroke-width="1.5"></path><path d="M664.29 650.19L664.29 650.19" stroke="#132e65" stroke-width="1.5"></path><path d="M664.29 650.19L847.31 703.96" stroke="#132e65" stroke-width="1.5"></path><path d="M664.29 650.19L831.93 551.65" stroke="#132e65" stroke-width="1.5"></path><path d="M664.29 650.19L408.88 538.37" stroke="#132e65" stroke-width="1.5"></path><path d="M847.29 87.45L847.29 87.45" stroke="#132e65" stroke-width="1.5"></path><path d="M847.29 87.45L963.14 74.51" stroke="#132e65" stroke-width="1.5"></path><path d="M847.29 87.45L821.91 254.45" stroke="#132e65" stroke-width="1.5"></path><path d="M847.29 87.45L961.91 230.35" stroke="#132e65" stroke-width="1.5"></path><path d="M847.29 87.45L969.04 -58.71" stroke="#132e65" stroke-width="1.5"></path><path d="M821.91 254.45L821.91 254.45" stroke="#132e65" stroke-width="1.5"></path><path d="M821.91 254.45L808.65 375.57" stroke="#132e65" stroke-width="1.5"></path><path d="M821.91 254.45L961.91 230.35" stroke="#132e65" stroke-width="1.5"></path><path d="M821.91 254.45L673.13 366.88" stroke="#132e65" stroke-width="1.5"></path><path d="M821.91 254.45L988.01 369.91" stroke="#132e65" stroke-width="1.5"></path><path d="M808.65 375.57L808.65 375.57" stroke="#132e65" stroke-width="1.5"></path><path d="M808.65 375.57L710.88 520.78" stroke="#132e65" stroke-width="1.5"></path><path d="M831.93 551.65L831.93 551.65" stroke="#132e65" stroke-width="1.5"></path><path d="M831.93 551.65L847.31 703.96" stroke="#132e65" stroke-width="1.5"></path><path d="M831.93 551.65L976.05 494.21" stroke="#132e65" stroke-width="1.5"></path><path d="M847.31 703.96L847.31 703.96" stroke="#132e65" stroke-width="1.5"></path><path d="M847.31 703.96L1000.38 681.36" stroke="#132e65" stroke-width="1.5"></path><path d="M969.04 -58.71L969.04 -58.71" stroke="#132e65" stroke-width="1.5"></path><path d="M969.04 -58.71L963.14 74.51" stroke="#132e65" stroke-width="1.5"></path><path d="M969.04 -58.71L1102.77 75.21" stroke="#132e65" stroke-width="1.5"></path><path d="M963.14 74.51L963.14 74.51" stroke="#132e65" stroke-width="1.5"></path><path d="M963.14 74.51L1102.77 75.21" stroke="#132e65" stroke-width="1.5"></path><path d="M961.91 230.35L961.91 230.35" stroke="#132e65" stroke-width="1.5"></path><path d="M961.91 230.35L988.01 369.91" stroke="#132e65" stroke-width="1.5"></path><path d="M961.91 230.35L1101.42 262.07" stroke="#132e65" stroke-width="1.5"></path><path d="M961.91 230.35L963.14 74.51" stroke="#132e65" stroke-width="1.5"></path><path d="M961.91 230.35L1102.77 75.21" stroke="#132e65" stroke-width="1.5"></path><path d="M988.01 369.91L988.01 369.91" stroke="#132e65" stroke-width="1.5"></path><path d="M988.01 369.91L976.05 494.21" stroke="#132e65" stroke-width="1.5"></path><path d="M988.01 369.91L1101.42 262.07" stroke="#132e65" stroke-width="1.5"></path><path d="M976.05 494.21L976.05 494.21" stroke="#132e65" stroke-width="1.5"></path><path d="M976.05 494.21L1124.26 495.52" stroke="#132e65" stroke-width="1.5"></path><path d="M1000.38 681.36L1000.38 681.36" stroke="#132e65" stroke-width="1.5"></path><path d="M1000.38 681.36L1121.61 672.44" stroke="#132e65" stroke-width="1.5"></path><path d="M1000.38 681.36L976.05 494.21" stroke="#132e65" stroke-width="1.5"></path><path d="M1000.38 681.36L831.93 551.65" stroke="#132e65" stroke-width="1.5"></path><path d="M1000.38 681.36L1124.26 495.52" stroke="#132e65" stroke-width="1.5"></path><path d="M1161.26 -39.77L1161.26 -39.77" stroke="#132e65" stroke-width="1.5"></path><path d="M1161.26 -39.77L1259.23 -61.43" stroke="#132e65" stroke-width="1.5"></path><path d="M1161.26 -39.77L1251.17 42.22" stroke="#132e65" stroke-width="1.5"></path><path d="M1102.77 75.21L1102.77 75.21" stroke="#132e65" stroke-width="1.5"></path><path d="M1102.77 75.21L1161.26 -39.77" stroke="#132e65" stroke-width="1.5"></path><path d="M1101.42 262.07L1101.42 262.07" stroke="#132e65" stroke-width="1.5"></path><path d="M1101.42 262.07L1159.83 351.43" stroke="#132e65" stroke-width="1.5"></path><path d="M1101.42 262.07L1240.44 255.23" stroke="#132e65" stroke-width="1.5"></path><path d="M1159.83 351.43L1159.83 351.43" stroke="#132e65" stroke-width="1.5"></path><path d="M1159.83 351.43L1240.44 255.23" stroke="#132e65" stroke-width="1.5"></path><path d="M1159.83 351.43L1124.26 495.52" stroke="#132e65" stroke-width="1.5"></path><path d="M1124.26 495.52L1124.26 495.52" stroke="#132e65" stroke-width="1.5"></path><path d="M1124.26 495.52L1250.57 537.77" stroke="#132e65" stroke-width="1.5"></path><path d="M1124.26 495.52L1121.61 672.44" stroke="#132e65" stroke-width="1.5"></path><path d="M1124.26 495.52L988.01 369.91" stroke="#132e65" stroke-width="1.5"></path><path d="M1121.61 672.44L1121.61 672.44" stroke="#132e65" stroke-width="1.5"></path><path d="M1121.61 672.44L1280.81 646.87" stroke="#132e65" stroke-width="1.5"></path><path d="M1121.61 672.44L1250.57 537.77" stroke="#132e65" stroke-width="1.5"></path><path d="M1121.61 672.44L976.05 494.21" stroke="#132e65" stroke-width="1.5"></path><path d="M1121.61 672.44L847.31 703.96" stroke="#132e65" stroke-width="1.5"></path><path d="M1259.23 -61.43L1259.23 -61.43" stroke="#132e65" stroke-width="1.5"></path><path d="M1259.23 -61.43L1251.17 42.22" stroke="#132e65" stroke-width="1.5"></path><path d="M1259.23 -61.43L1417.18 -103.19" stroke="#132e65" stroke-width="1.5"></path><path d="M1259.23 -61.43L1403.77 75.1" stroke="#132e65" stroke-width="1.5"></path><path d="M1251.17 42.22L1251.17 42.22" stroke="#132e65" stroke-width="1.5"></path><path d="M1240.44 255.23L1240.44 255.23" stroke="#132e65" stroke-width="1.5"></path><path d="M1240.44 255.23L1308.63 374.47" stroke="#132e65" stroke-width="1.5"></path><path d="M1308.63 374.47L1308.63 374.47" stroke="#132e65" stroke-width="1.5"></path><path d="M1308.63 374.47L1399.64 376.5" stroke="#132e65" stroke-width="1.5"></path><path d="M1308.63 374.47L1159.83 351.43" stroke="#132e65" stroke-width="1.5"></path><path d="M1308.63 374.47L1250.57 537.77" stroke="#132e65" stroke-width="1.5"></path><path d="M1308.63 374.47L1422.12 553.32" stroke="#132e65" stroke-width="1.5"></path><path d="M1250.57 537.77L1250.57 537.77" stroke="#132e65" stroke-width="1.5"></path><path d="M1250.57 537.77L1280.81 646.87" stroke="#132e65" stroke-width="1.5"></path><path d="M1250.57 537.77L1422.12 553.32" stroke="#132e65" stroke-width="1.5"></path><path d="M1280.81 646.87L1280.81 646.87" stroke="#132e65" stroke-width="1.5"></path><path d="M1280.81 646.87L1403.1 699.44" stroke="#132e65" stroke-width="1.5"></path><path d="M1280.81 646.87L1422.12 553.32" stroke="#132e65" stroke-width="1.5"></path><path d="M1280.81 646.87L1124.26 495.52" stroke="#132e65" stroke-width="1.5"></path><path d="M1417.18 -103.19L1417.18 -103.19" stroke="#132e65" stroke-width="1.5"></path><path d="M1417.18 -103.19L1549.18 -106.98" stroke="#132e65" stroke-width="1.5"></path><path d="M1417.18 -103.19L1403.77 75.1" stroke="#132e65" stroke-width="1.5"></path><path d="M1403.77 75.1L1403.77 75.1" stroke="#132e65" stroke-width="1.5"></path><path d="M1403.77 75.1L1251.17 42.22" stroke="#132e65" stroke-width="1.5"></path><path d="M1399.64 376.5L1399.64 376.5" stroke="#132e65" stroke-width="1.5"></path><path d="M1399.64 376.5L1422.12 553.32" stroke="#132e65" stroke-width="1.5"></path><path d="M1399.64 376.5L1598.71 381.2" stroke="#132e65" stroke-width="1.5"></path><path d="M1399.64 376.5L1240.44 255.23" stroke="#132e65" stroke-width="1.5"></path><path d="M1399.64 376.5L1582.62 256.56" stroke="#132e65" stroke-width="1.5"></path><path d="M1399.64 376.5L1250.57 537.77" stroke="#132e65" stroke-width="1.5"></path><path d="M1422.12 553.32L1422.12 553.32" stroke="#132e65" stroke-width="1.5"></path><path d="M1422.12 553.32L1565.41 540.5" stroke="#132e65" stroke-width="1.5"></path><path d="M1422.12 553.32L1403.1 699.44" stroke="#132e65" stroke-width="1.5"></path><path d="M1403.1 699.44L1403.1 699.44" stroke="#132e65" stroke-width="1.5"></path><path d="M1403.1 699.44L1559.32 685.53" stroke="#132e65" stroke-width="1.5"></path><path d="M1403.1 699.44L1250.57 537.77" stroke="#132e65" stroke-width="1.5"></path><path d="M1403.1 699.44L1565.41 540.5" stroke="#132e65" stroke-width="1.5"></path><path d="M1403.1 699.44L1121.61 672.44" stroke="#132e65" stroke-width="1.5"></path><path d="M1549.18 -106.98L1549.18 -106.98" stroke="#132e65" stroke-width="1.5"></path><path d="M1549.18 -106.98L1403.77 75.1" stroke="#132e65" stroke-width="1.5"></path><path d="M1549.18 -106.98L1259.23 -61.43" stroke="#132e65" stroke-width="1.5"></path><path d="M1549.18 -106.98L1251.17 42.22" stroke="#132e65" stroke-width="1.5"></path><path d="M1549.18 -106.98L1582.62 256.56" stroke="#132e65" stroke-width="1.5"></path><path d="M1582.62 256.56L1582.62 256.56" stroke="#132e65" stroke-width="1.5"></path><path d="M1582.62 256.56L1598.71 381.2" stroke="#132e65" stroke-width="1.5"></path><path d="M1582.62 256.56L1403.77 75.1" stroke="#132e65" stroke-width="1.5"></path><path d="M1582.62 256.56L1565.41 540.5" stroke="#132e65" stroke-width="1.5"></path><path d="M1598.71 381.2L1598.71 381.2" stroke="#132e65" stroke-width="1.5"></path><path d="M1598.71 381.2L1565.41 540.5" stroke="#132e65" stroke-width="1.5"></path><path d="M1565.41 540.5L1565.41 540.5" stroke="#132e65" stroke-width="1.5"></path><path d="M1565.41 540.5L1559.32 685.53" stroke="#132e65" stroke-width="1.5"></path><path d="M1559.32 685.53L1559.32 685.53" stroke="#132e65" stroke-width="1.5"></path><path d="M1559.32 685.53L1422.12 553.32" stroke="#132e65" stroke-width="1.5"></path><path d="M1559.32 685.53L1280.81 646.87" stroke="#132e65" stroke-width="1.5"></path><path d="M1559.32 685.53L1598.71 381.2" stroke="#132e65" stroke-width="1.5"></path><circle r="5" cx="-69.96" cy="394.52" fill="#132e65"></circle><circle r="5" cx="-106.13" cy="490.63" fill="#132e65"></circle><circle r="5" cx="-78.61" cy="655.73" fill="#132e65"></circle><circle r="5" cx="93.23" cy="397.08" fill="#132e65"></circle><circle r="5" cx="64.66" cy="508.74" fill="#132e65"></circle><circle r="5" cx="49.87" cy="670.56" fill="#132e65"></circle><circle r="5" cx="191.82" cy="501.34" fill="#132e65"></circle><circle r="5" cx="192.91" cy="684.45" fill="#132e65"></circle><circle r="5" cx="368.05" cy="383.08" fill="#132e65"></circle><circle r="5" cx="408.88" cy="538.37" fill="#132e65"></circle><circle r="5" cx="374.49" cy="663.69" fill="#132e65"></circle><circle r="5" cx="505.49" cy="402.4" fill="#132e65"></circle><circle r="5" cx="501.84" cy="538.3" fill="#132e65"></circle><circle r="5" cx="556.44" cy="672.63" fill="#132e65"></circle><circle r="5" cx="664.26" cy="218.66" fill="#132e65"></circle><circle r="5" cx="673.13" cy="366.88" fill="#132e65"></circle><circle r="5" cx="710.88" cy="520.78" fill="#132e65"></circle><circle r="5" cx="664.29" cy="650.19" fill="#132e65"></circle><circle r="5" cx="847.29" cy="87.45" fill="#132e65"></circle><circle r="5" cx="821.91" cy="254.45" fill="#132e65"></circle><circle r="5" cx="808.65" cy="375.57" fill="#132e65"></circle><circle r="5" cx="831.93" cy="551.65" fill="#132e65"></circle><circle r="5" cx="847.31" cy="703.96" fill="#132e65"></circle><circle r="5" cx="969.04" cy="-58.71" fill="#132e65"></circle><circle r="5" cx="963.14" cy="74.51" fill="#132e65"></circle><circle r="5" cx="961.91" cy="230.35" fill="#132e65"></circle><circle r="5" cx="988.01" cy="369.91" fill="#132e65"></circle><circle r="5" cx="976.05" cy="494.21" fill="#132e65"></circle><circle r="5" cx="1000.38" cy="681.36" fill="#132e65"></circle><circle r="5" cx="1161.26" cy="-39.77" fill="#132e65"></circle><circle r="5" cx="1102.77" cy="75.21" fill="#132e65"></circle><circle r="5" cx="1101.42" cy="262.07" fill="#132e65"></circle><circle r="5" cx="1159.83" cy="351.43" fill="#132e65"></circle><circle r="5" cx="1124.26" cy="495.52" fill="#132e65"></circle><circle r="5" cx="1121.61" cy="672.44" fill="#132e65"></circle><circle r="5" cx="1259.23" cy="-61.43" fill="#132e65"></circle><circle r="5" cx="1251.17" cy="42.22" fill="#132e65"></circle><circle r="5" cx="1240.44" cy="255.23" fill="#132e65"></circle><circle r="5" cx="1308.63" cy="374.47" fill="#132e65"></circle><circle r="5" cx="1250.57" cy="537.77" fill="#132e65"></circle><circle r="5" cx="1280.81" cy="646.87" fill="#132e65"></circle><circle r="5" cx="1417.18" cy="-103.19" fill="#132e65"></circle><circle r="5" cx="1403.77" cy="75.1" fill="#132e65"></circle><circle r="5" cx="1399.64" cy="376.5" fill="#132e65"></circle><circle r="5" cx="1422.12" cy="553.32" fill="#132e65"></circle><circle r="5" cx="1403.1" cy="699.44" fill="#132e65"></circle><circle r="5" cx="1549.18" cy="-106.98" fill="#132e65"></circle><circle r="5" cx="1582.62" cy="256.56" fill="#132e65"></circle><circle r="5" cx="1598.71" cy="381.2" fill="#132e65"></circle><circle r="5" cx="1565.41" cy="540.5" fill="#132e65"></circle><circle r="5" cx="1559.32" cy="685.53" fill="#132e65"></circle><path d="M105.4 672.2L105.4 672.2" stroke="hsl(228.5, 77.2%, 51.5%)" stroke-width="1.5"></path><path d="M105.4 672.2L228.5 703.48" stroke="hsl(228.5, 77.2%, 51.5%)" stroke-width="1.5"></path><path d="M105.4 672.2L-52.27 548.04" stroke="hsl(228.5, 77.2%, 51.5%)" stroke-width="1.5"></path><path d="M105.4 672.2L-94.72 697.14" stroke="hsl(228.5, 77.2%, 51.5%)" stroke-width="1.5"></path><path d="M105.4 672.2L211.14 487.71" stroke="hsl(228.5, 77.2%, 51.5%)" stroke-width="1.5"></path><path d="M490.5 645.66L490.5 645.66" stroke="hsl(228.5, 77.2%, 51.5%)" stroke-width="1.5"></path><path d="M490.5 645.66L560.11 540.61" stroke="hsl(228.5, 77.2%, 51.5%)" stroke-width="1.5"></path><path d="M490.5 645.66L376.71 561.3" stroke="hsl(228.5, 77.2%, 51.5%)" stroke-width="1.5"></path><path d="M490.5 645.66L352.06 711.76" stroke="hsl(228.5, 77.2%, 51.5%)" stroke-width="1.5"></path><path d="M490.5 645.66L675.23 641.65" stroke="hsl(228.5, 77.2%, 51.5%)" stroke-width="1.5"></path><path d="M950.86 556.41L950.86 556.41" stroke="hsl(228.5, 77.2%, 51.5%)" stroke-width="1.5"></path><path d="M950.86 556.41L979.61 647.05" stroke="hsl(228.5, 77.2%, 51.5%)" stroke-width="1.5"></path><path d="M950.86 556.41L859.23 687.65" stroke="hsl(228.5, 77.2%, 51.5%)" stroke-width="1.5"></path><path d="M950.86 556.41L1110.24 504.44" stroke="hsl(228.5, 77.2%, 51.5%)" stroke-width="1.5"></path><path d="M950.86 556.41L789.23 489.39" stroke="hsl(228.5, 77.2%, 51.5%)" stroke-width="1.5"></path><path d="M950.86 556.41L963.78 380.52" stroke="hsl(228.5, 77.2%, 51.5%)" stroke-width="1.5"></path><path d="M950.86 556.41L1113.59 705.65" stroke="hsl(228.5, 77.2%, 51.5%)" stroke-width="1.5"></path><path d="M1110.24 504.44L1110.24 504.44" stroke="hsl(228.5, 77.2%, 51.5%)" stroke-width="1.5"></path><path d="M1110.24 504.44L1151.36 380.45" stroke="hsl(228.5, 77.2%, 51.5%)" stroke-width="1.5"></path><path d="M1110.24 504.44L1267.5 409.39" stroke="hsl(228.5, 77.2%, 51.5%)" stroke-width="1.5"></path><path d="M1110.24 504.44L1299.13 527.16" stroke="hsl(228.5, 77.2%, 51.5%)" stroke-width="1.5"></path><path d="M-52.27 548.04L-52.27 548.04" stroke="hsl(228.5, 77.2%, 51.5%)" stroke-width="1.5"></path><path d="M-52.27 548.04L-94.72 697.14" stroke="hsl(228.5, 77.2%, 51.5%)" stroke-width="1.5"></path><path d="M-52.27 548.04L211.14 487.71" stroke="hsl(228.5, 77.2%, 51.5%)" stroke-width="1.5"></path><path d="M-52.27 548.04L228.5 703.48" stroke="hsl(228.5, 77.2%, 51.5%)" stroke-width="1.5"></path><path d="M-94.72 697.14L-94.72 697.14" stroke="hsl(228.5, 77.2%, 51.5%)" stroke-width="1.5"></path><path d="M-94.72 697.14L228.5 703.48" stroke="hsl(228.5, 77.2%, 51.5%)" stroke-width="1.5"></path><path d="M-94.72 697.14L211.14 487.71" stroke="hsl(228.5, 77.2%, 51.5%)" stroke-width="1.5"></path><path d="M211.14 487.71L211.14 487.71" stroke="hsl(228.5, 77.2%, 51.5%)" stroke-width="1.5"></path><path d="M211.14 487.71L376.71 561.3" stroke="hsl(228.5, 77.2%, 51.5%)" stroke-width="1.5"></path><path d="M211.14 487.71L228.5 703.48" stroke="hsl(228.5, 77.2%, 51.5%)" stroke-width="1.5"></path><path d="M211.14 487.71L352.06 711.76" stroke="hsl(228.5, 77.2%, 51.5%)" stroke-width="1.5"></path><path d="M211.14 487.71L490.5 645.66" stroke="hsl(228.5, 77.2%, 51.5%)" stroke-width="1.5"></path><path d="M228.5 703.48L228.5 703.48" stroke="hsl(228.5, 77.2%, 51.5%)" stroke-width="1.5"></path><path d="M228.5 703.48L352.06 711.76" stroke="hsl(228.5, 77.2%, 51.5%)" stroke-width="1.5"></path><path d="M228.5 703.48L376.71 561.3" stroke="hsl(228.5, 77.2%, 51.5%)" stroke-width="1.5"></path><path d="M376.71 561.3L376.71 561.3" stroke="hsl(228.5, 77.2%, 51.5%)" stroke-width="1.5"></path><path d="M376.71 561.3L352.06 711.76" stroke="hsl(228.5, 77.2%, 51.5%)" stroke-width="1.5"></path><path d="M352.06 711.76L352.06 711.76" stroke="hsl(228.5, 77.2%, 51.5%)" stroke-width="1.5"></path><path d="M560.11 540.61L560.11 540.61" stroke="hsl(228.5, 77.2%, 51.5%)" stroke-width="1.5"></path><path d="M560.11 540.61L665.68 558.46" stroke="hsl(228.5, 77.2%, 51.5%)" stroke-width="1.5"></path><path d="M560.11 540.61L675.23 641.65" stroke="hsl(228.5, 77.2%, 51.5%)" stroke-width="1.5"></path><path d="M665.68 558.46L665.68 558.46" stroke="hsl(228.5, 77.2%, 51.5%)" stroke-width="1.5"></path><path d="M665.68 558.46L675.23 641.65" stroke="hsl(228.5, 77.2%, 51.5%)" stroke-width="1.5"></path><path d="M665.68 558.46L789.23 489.39" stroke="hsl(228.5, 77.2%, 51.5%)" stroke-width="1.5"></path><path d="M675.23 641.65L675.23 641.65" stroke="hsl(228.5, 77.2%, 51.5%)" stroke-width="1.5"></path><path d="M675.23 641.65L859.23 687.65" stroke="hsl(228.5, 77.2%, 51.5%)" stroke-width="1.5"></path><path d="M675.23 641.65L789.23 489.39" stroke="hsl(228.5, 77.2%, 51.5%)" stroke-width="1.5"></path><path d="M675.23 641.65L792.02 392.56" stroke="hsl(228.5, 77.2%, 51.5%)" stroke-width="1.5"></path><path d="M792.02 392.56L792.02 392.56" stroke="hsl(228.5, 77.2%, 51.5%)" stroke-width="1.5"></path><path d="M792.02 392.56L789.23 489.39" stroke="hsl(228.5, 77.2%, 51.5%)" stroke-width="1.5"></path><path d="M789.23 489.39L789.23 489.39" stroke="hsl(228.5, 77.2%, 51.5%)" stroke-width="1.5"></path><path d="M789.23 489.39L963.78 380.52" stroke="hsl(228.5, 77.2%, 51.5%)" stroke-width="1.5"></path><path d="M859.23 687.65L859.23 687.65" stroke="hsl(228.5, 77.2%, 51.5%)" stroke-width="1.5"></path><path d="M859.23 687.65L979.61 647.05" stroke="hsl(228.5, 77.2%, 51.5%)" stroke-width="1.5"></path><path d="M963.78 380.52L963.78 380.52" stroke="hsl(228.5, 77.2%, 51.5%)" stroke-width="1.5"></path><path d="M963.78 380.52L792.02 392.56" stroke="hsl(228.5, 77.2%, 51.5%)" stroke-width="1.5"></path><path d="M963.78 380.52L1151.36 380.45" stroke="hsl(228.5, 77.2%, 51.5%)" stroke-width="1.5"></path><path d="M963.78 380.52L1110.13 259.28" stroke="hsl(228.5, 77.2%, 51.5%)" stroke-width="1.5"></path><path d="M979.61 647.05L979.61 647.05" stroke="hsl(228.5, 77.2%, 51.5%)" stroke-width="1.5"></path><path d="M979.61 647.05L1113.59 705.65" stroke="hsl(228.5, 77.2%, 51.5%)" stroke-width="1.5"></path><path d="M979.61 647.05L1110.24 504.44" stroke="hsl(228.5, 77.2%, 51.5%)" stroke-width="1.5"></path><path d="M1157.35 108.84L1157.35 108.84" stroke="hsl(228.5, 77.2%, 51.5%)" stroke-width="1.5"></path><path d="M1157.35 108.84L1282.12 75.42" stroke="hsl(228.5, 77.2%, 51.5%)" stroke-width="1.5"></path><path d="M1157.35 108.84L1110.13 259.28" stroke="hsl(228.5, 77.2%, 51.5%)" stroke-width="1.5"></path><path d="M1157.35 108.84L1307.71 211.22" stroke="hsl(228.5, 77.2%, 51.5%)" stroke-width="1.5"></path><path d="M1157.35 108.84L1260.78 -111.04" stroke="hsl(228.5, 77.2%, 51.5%)" stroke-width="1.5"></path><path d="M1110.13 259.28L1110.13 259.28" stroke="hsl(228.5, 77.2%, 51.5%)" stroke-width="1.5"></path><path d="M1110.13 259.28L1151.36 380.45" stroke="hsl(228.5, 77.2%, 51.5%)" stroke-width="1.5"></path><path d="M1110.13 259.28L1307.71 211.22" stroke="hsl(228.5, 77.2%, 51.5%)" stroke-width="1.5"></path><path d="M1110.13 259.28L1267.5 409.39" stroke="hsl(228.5, 77.2%, 51.5%)" stroke-width="1.5"></path><path d="M1151.36 380.45L1151.36 380.45" stroke="hsl(228.5, 77.2%, 51.5%)" stroke-width="1.5"></path><path d="M1151.36 380.45L1267.5 409.39" stroke="hsl(228.5, 77.2%, 51.5%)" stroke-width="1.5"></path><path d="M1113.59 705.65L1113.59 705.65" stroke="hsl(228.5, 77.2%, 51.5%)" stroke-width="1.5"></path><path d="M1113.59 705.65L1283.65 711.58" stroke="hsl(228.5, 77.2%, 51.5%)" stroke-width="1.5"></path><path d="M1113.59 705.65L1110.24 504.44" stroke="hsl(228.5, 77.2%, 51.5%)" stroke-width="1.5"></path><path d="M1113.59 705.65L859.23 687.65" stroke="hsl(228.5, 77.2%, 51.5%)" stroke-width="1.5"></path><path d="M1113.59 705.65L1299.13 527.16" stroke="hsl(228.5, 77.2%, 51.5%)" stroke-width="1.5"></path><path d="M1260.78 -111.04L1260.78 -111.04" stroke="hsl(228.5, 77.2%, 51.5%)" stroke-width="1.5"></path><path d="M1260.78 -111.04L1282.12 75.42" stroke="hsl(228.5, 77.2%, 51.5%)" stroke-width="1.5"></path><path d="M1260.78 -111.04L1575.27 -54.57" stroke="hsl(228.5, 77.2%, 51.5%)" stroke-width="1.5"></path><path d="M1260.78 -111.04L1307.71 211.22" stroke="hsl(228.5, 77.2%, 51.5%)" stroke-width="1.5"></path><path d="M1282.12 75.42L1282.12 75.42" stroke="hsl(228.5, 77.2%, 51.5%)" stroke-width="1.5"></path><path d="M1282.12 75.42L1307.71 211.22" stroke="hsl(228.5, 77.2%, 51.5%)" stroke-width="1.5"></path><path d="M1282.12 75.42L1408.46 205.13" stroke="hsl(228.5, 77.2%, 51.5%)" stroke-width="1.5"></path><path d="M1307.71 211.22L1307.71 211.22" stroke="hsl(228.5, 77.2%, 51.5%)" stroke-width="1.5"></path><path d="M1307.71 211.22L1408.46 205.13" stroke="hsl(228.5, 77.2%, 51.5%)" stroke-width="1.5"></path><path d="M1267.5 409.39L1267.5 409.39" stroke="hsl(228.5, 77.2%, 51.5%)" stroke-width="1.5"></path><path d="M1299.13 527.16L1299.13 527.16" stroke="hsl(228.5, 77.2%, 51.5%)" stroke-width="1.5"></path><path d="M1299.13 527.16L1267.5 409.39" stroke="hsl(228.5, 77.2%, 51.5%)" stroke-width="1.5"></path><path d="M1299.13 527.16L1429.05 510.77" stroke="hsl(228.5, 77.2%, 51.5%)" stroke-width="1.5"></path><path d="M1299.13 527.16L1387.86 407.96" stroke="hsl(228.5, 77.2%, 51.5%)" stroke-width="1.5"></path><path d="M1299.13 527.16L1283.65 711.58" stroke="hsl(228.5, 77.2%, 51.5%)" stroke-width="1.5"></path><path d="M1283.65 711.58L1283.65 711.58" stroke="hsl(228.5, 77.2%, 51.5%)" stroke-width="1.5"></path><path d="M1283.65 711.58L1454.71 698.21" stroke="hsl(228.5, 77.2%, 51.5%)" stroke-width="1.5"></path><path d="M1283.65 711.58L1429.05 510.77" stroke="hsl(228.5, 77.2%, 51.5%)" stroke-width="1.5"></path><path d="M1283.65 711.58L1110.24 504.44" stroke="hsl(228.5, 77.2%, 51.5%)" stroke-width="1.5"></path><path d="M1408.46 205.13L1408.46 205.13" stroke="hsl(228.5, 77.2%, 51.5%)" stroke-width="1.5"></path><path d="M1408.46 205.13L1599.17 204.92" stroke="hsl(228.5, 77.2%, 51.5%)" stroke-width="1.5"></path><path d="M1408.46 205.13L1387.86 407.96" stroke="hsl(228.5, 77.2%, 51.5%)" stroke-width="1.5"></path><path d="M1387.86 407.96L1387.86 407.96" stroke="hsl(228.5, 77.2%, 51.5%)" stroke-width="1.5"></path><path d="M1387.86 407.96L1429.05 510.77" stroke="hsl(228.5, 77.2%, 51.5%)" stroke-width="1.5"></path><path d="M1387.86 407.96L1267.5 409.39" stroke="hsl(228.5, 77.2%, 51.5%)" stroke-width="1.5"></path><path d="M1387.86 407.96L1307.71 211.22" stroke="hsl(228.5, 77.2%, 51.5%)" stroke-width="1.5"></path><path d="M1387.86 407.96L1602.72 362.94" stroke="hsl(228.5, 77.2%, 51.5%)" stroke-width="1.5"></path><path d="M1429.05 510.77L1429.05 510.77" stroke="hsl(228.5, 77.2%, 51.5%)" stroke-width="1.5"></path><path d="M1429.05 510.77L1574.05 553.93" stroke="hsl(228.5, 77.2%, 51.5%)" stroke-width="1.5"></path><path d="M1429.05 510.77L1454.71 698.21" stroke="hsl(228.5, 77.2%, 51.5%)" stroke-width="1.5"></path><path d="M1429.05 510.77L1267.5 409.39" stroke="hsl(228.5, 77.2%, 51.5%)" stroke-width="1.5"></path><path d="M1429.05 510.77L1602.72 362.94" stroke="hsl(228.5, 77.2%, 51.5%)" stroke-width="1.5"></path><path d="M1454.71 698.21L1454.71 698.21" stroke="hsl(228.5, 77.2%, 51.5%)" stroke-width="1.5"></path><path d="M1454.71 698.21L1574.05 553.93" stroke="hsl(228.5, 77.2%, 51.5%)" stroke-width="1.5"></path><path d="M1454.71 698.21L1299.13 527.16" stroke="hsl(228.5, 77.2%, 51.5%)" stroke-width="1.5"></path><path d="M1454.71 698.21L1387.86 407.96" stroke="hsl(228.5, 77.2%, 51.5%)" stroke-width="1.5"></path><path d="M1575.27 -54.57L1575.27 -54.57" stroke="hsl(228.5, 77.2%, 51.5%)" stroke-width="1.5"></path><path d="M1575.27 -54.57L1580.8 72.38" stroke="hsl(228.5, 77.2%, 51.5%)" stroke-width="1.5"></path><path d="M1575.27 -54.57L1599.17 204.92" stroke="hsl(228.5, 77.2%, 51.5%)" stroke-width="1.5"></path><path d="M1580.8 72.38L1580.8 72.38" stroke="hsl(228.5, 77.2%, 51.5%)" stroke-width="1.5"></path><path d="M1580.8 72.38L1599.17 204.92" stroke="hsl(228.5, 77.2%, 51.5%)" stroke-width="1.5"></path><path d="M1580.8 72.38L1408.46 205.13" stroke="hsl(228.5, 77.2%, 51.5%)" stroke-width="1.5"></path><path d="M1599.17 204.92L1599.17 204.92" stroke="hsl(228.5, 77.2%, 51.5%)" stroke-width="1.5"></path><path d="M1599.17 204.92L1602.72 362.94" stroke="hsl(228.5, 77.2%, 51.5%)" stroke-width="1.5"></path><path d="M1602.72 362.94L1602.72 362.94" stroke="hsl(228.5, 77.2%, 51.5%)" stroke-width="1.5"></path><path d="M1602.72 362.94L1574.05 553.93" stroke="hsl(228.5, 77.2%, 51.5%)" stroke-width="1.5"></path><path d="M1602.72 362.94L1408.46 205.13" stroke="hsl(228.5, 77.2%, 51.5%)" stroke-width="1.5"></path><path d="M1602.72 362.94L1580.8 72.38" stroke="hsl(228.5, 77.2%, 51.5%)" stroke-width="1.5"></path><path d="M1574.05 553.93L1574.05 553.93" stroke="hsl(228.5, 77.2%, 51.5%)" stroke-width="1.5"></path><path d="M1574.05 553.93L1387.86 407.96" stroke="hsl(228.5, 77.2%, 51.5%)" stroke-width="1.5"></path><circle r="25" cx="105.4" cy="672.2" fill="url(#SvgjsRadialGradient1001)"></circle><circle r="25" cx="490.5" cy="645.66" fill="url(#SvgjsRadialGradient1001)"></circle><circle r="25" cx="950.86" cy="556.41" fill="url(#SvgjsRadialGradient1001)"></circle><circle r="25" cx="1110.24" cy="504.44" fill="url(#SvgjsRadialGradient1001)"></circle><circle r="5" cx="-52.27" cy="548.04" fill="#8b9ad9"></circle><circle r="5" cx="-94.72" cy="697.14" fill="#8b9ad9"></circle><circle r="5" cx="211.14" cy="487.71" fill="#8b9ad9"></circle><circle r="5" cx="228.5" cy="703.48" fill="#8b9ad9"></circle><circle r="5" cx="376.71" cy="561.3" fill="#8b9ad9"></circle><circle r="5" cx="352.06" cy="711.76" fill="#8b9ad9"></circle><circle r="5" cx="560.11" cy="540.61" fill="#8b9ad9"></circle><circle r="5" cx="665.68" cy="558.46" fill="#8b9ad9"></circle><circle r="5" cx="675.23" cy="641.65" fill="#8b9ad9"></circle><circle r="5" cx="792.02" cy="392.56" fill="#8b9ad9"></circle><circle r="5" cx="789.23" cy="489.39" fill="#8b9ad9"></circle><circle r="5" cx="859.23" cy="687.65" fill="#8b9ad9"></circle><circle r="5" cx="963.78" cy="380.52" fill="#8b9ad9"></circle><circle r="5" cx="979.61" cy="647.05" fill="#8b9ad9"></circle><circle r="5" cx="1157.35" cy="108.84" fill="#8b9ad9"></circle><circle r="5" cx="1110.13" cy="259.28" fill="#8b9ad9"></circle><circle r="5" cx="1151.36" cy="380.45" fill="#8b9ad9"></circle><circle r="5" cx="1113.59" cy="705.65" fill="#8b9ad9"></circle><circle r="5" cx="1260.78" cy="-111.04" fill="#8b9ad9"></circle><circle r="5" cx="1282.12" cy="75.42" fill="#8b9ad9"></circle><circle r="5" cx="1307.71" cy="211.22" fill="#8b9ad9"></circle><circle r="5" cx="1267.5" cy="409.39" fill="#8b9ad9"></circle><circle r="5" cx="1299.13" cy="527.16" fill="#8b9ad9"></circle><circle r="5" cx="1283.65" cy="711.58" fill="#8b9ad9"></circle><circle r="5" cx="1408.46" cy="205.13" fill="#8b9ad9"></circle><circle r="5" cx="1387.86" cy="407.96" fill="#8b9ad9"></circle><circle r="5" cx="1429.05" cy="510.77" fill="#8b9ad9"></circle><circle r="5" cx="1454.71" cy="698.21" fill="#8b9ad9"></circle><circle r="5" cx="1575.27" cy="-54.57" fill="#8b9ad9"></circle><circle r="5" cx="1580.8" cy="72.38" fill="#8b9ad9"></circle><circle r="5" cx="1599.17" cy="204.92" fill="#8b9ad9"></circle><circle r="5" cx="1602.72" cy="362.94" fill="#8b9ad9"></circle><circle r="5" cx="1574.05" cy="553.93" fill="#8b9ad9"></circle></g><defs><mask id="SvgjsMask1000"><rect width="1440" height="560" fill="#ffffff"></rect></mask><radialGradient id="SvgjsRadialGradient1001"><stop stop-color="#ffffff" offset="0.1"></stop><stop stop-color="#1735b3" offset="0.2"></stop><stop stop-color="rgba(23, 53, 179, 0)" offset="1"></stop></radialGradient></defs></svg>